<svg id="svg" version="1.1" xmlns="http://www.w3.org/2000/svg" xmlns:xlink="http://www.w3.org/1999/xlink" width="400" height="400" viewBox="0, 0, 400,400"><g id="svgg"><path id="path0" d="M185.400 0.254 C 114.884 5.718,53.390 46.645,21.403 109.400 C -1.177 153.701,-6.237 206.245,7.402 254.800 C 37.159 360.740,148.143 422.557,254.800 392.598 C 360.740 362.841,422.557 251.857,392.598 145.200 C 370.704 67.255,304.565 11.211,222.400 0.979 C 217.244 0.337,190.974 -0.178,185.400 0.254 M215.200 20.586 C 364.323 33.746,433.456 212.118,332.104 322.211 C 242.926 419.080,82.072 389.398,32.891 267.000 C -16.858 143.186,82.510 8.877,215.200 20.586 M197.710 110.605 C 191.921 111.862,185.499 116.795,182.064 122.623 C 179.848 126.384,179.886 126.832,182.500 127.747 C 189.931 130.346,194.374 141.546,197.911 166.600 C 199.011 174.389,199.065 174.600,199.973 174.600 C 200.851 174.600,201.055 174.051,203.450 165.200 C 209.878 141.452,214.676 132.114,222.482 128.158 C 225.026 126.869,224.978 126.218,222.008 121.709 C 216.052 112.668,207.081 108.568,197.710 110.605 M111.348 130.591 C 111.074 131.306,129.220 163.464,131.555 166.400 C 135.584 171.466,141.740 176.468,146.583 178.610 C 149.801 180.033,189.142 189.818,189.641 189.319 C 190.552 188.408,180.568 150.296,178.083 145.200 C 174.465 137.778,169.180 133.007,162.200 130.861 C 159.111 129.911,111.706 129.660,111.348 130.591 M240.630 130.424 C 232.561 131.775,226.768 136.396,222.299 145.051 C 220.153 149.205,209.835 188.395,210.668 189.228 C 211.118 189.678,249.815 180.208,253.472 178.754 C 258.226 176.863,266.414 170.083,269.558 165.433 C 272.414 161.210,289.251 131.109,289.050 130.586 C 288.796 129.924,244.502 129.776,240.630 130.424 M121.709 177.992 C 105.935 188.384,106.393 208.369,122.623 217.936 C 126.384 220.152,126.832 220.114,127.747 217.500 C 130.346 210.069,141.546 205.626,166.600 202.089 C 174.389 200.989,174.600 200.935,174.600 200.027 C 174.600 199.149,174.051 198.945,165.200 196.550 C 141.452 190.122,132.114 185.324,128.158 177.518 C 126.869 174.974,126.218 175.022,121.709 177.992 M271.842 177.518 C 267.886 185.324,258.548 190.122,234.800 196.550 C 225.949 198.945,225.400 199.149,225.400 200.027 C 225.400 200.935,225.611 200.989,233.400 202.089 C 258.454 205.626,269.654 210.069,272.253 217.500 C 273.168 220.114,273.616 220.152,277.377 217.936 C 293.601 208.372,294.059 188.380,278.291 177.992 C 273.782 175.022,273.131 174.974,271.842 177.518 M168.228 215.205 C 142.991 221.563,141.123 222.426,133.200 231.376 C 130.217 234.745,110.942 267.950,111.350 269.015 C 111.684 269.884,156.045 269.884,160.584 269.016 C 168.346 267.531,174.219 262.525,178.372 253.855 C 180.338 249.752,190.408 211.383,189.784 210.374 C 189.450 209.834,190.354 209.631,168.228 215.205 M210.570 210.535 C 210.065 211.850,219.965 249.679,221.840 253.600 C 226.173 262.660,232.408 267.875,240.471 269.183 C 244.821 269.889,288.773 269.736,289.050 269.014 C 289.276 268.425,271.861 237.444,269.368 234.000 C 267.669 231.654,262.391 226.460,259.600 224.388 C 255.269 221.173,253.442 220.564,231.926 215.170 C 208.939 209.406,210.844 209.819,210.570 210.535 M199.034 225.672 C 198.945 225.962,198.395 229.655,197.813 233.879 C 194.454 258.237,189.893 269.667,182.500 272.253 C 179.886 273.168,179.848 273.616,182.064 277.377 C 191.628 293.601,211.620 294.059,222.008 278.291 C 224.978 273.782,225.026 273.131,222.482 271.842 C 214.675 267.886,209.872 258.535,203.452 234.800 C 201.197 226.459,200.814 225.386,200.053 225.272 C 199.582 225.202,199.123 225.382,199.034 225.672 " stroke="none" fill="#a40404" fill-rule="evenodd"></path><path id="path1" d="M186.600 20.646 C 87.071 30.334,17.055 109.207,20.463 207.800 C 24.035 311.183,117.132 390.559,220.800 378.611 C 328.419 366.208,400.532 261.706,374.372 156.061 C 356.566 84.153,295.677 30.676,221.000 21.359 C 216.078 20.745,190.937 20.224,186.600 20.646 M208.823 110.915 C 214.359 112.802,220.065 117.646,223.300 123.204 C 225.295 126.632,225.254 127.212,222.949 128.160 C 215.311 131.301,210.338 140.870,203.660 165.272 C 201.489 173.202,200.863 175.016,200.258 175.132 C 199.016 175.371,198.870 174.882,197.592 166.194 C 193.709 139.819,189.311 129.183,181.697 127.754 C 179.814 127.401,179.676 126.627,181.032 124.036 C 186.772 113.070,198.668 107.453,208.823 110.915 M161.816 130.607 C 169.265 132.504,174.865 137.684,178.956 146.459 C 180.648 150.089,190.000 185.743,190.000 188.564 C 190.000 190.110,189.994 190.109,168.624 184.752 C 143.159 178.368,141.713 177.711,133.476 168.764 C 130.100 165.097,110.581 131.835,111.065 130.574 C 111.404 129.692,158.344 129.723,161.816 130.607 M289.326 130.552 C 289.786 131.750,270.057 165.337,266.819 168.868 C 263.029 173.001,258.808 176.357,255.085 178.197 C 250.874 180.278,211.448 190.191,210.631 189.374 C 209.984 188.727,219.061 151.732,220.978 147.200 C 224.546 138.769,231.068 132.567,238.400 130.633 C 241.597 129.790,289.005 129.714,289.326 130.552 M128.160 177.051 C 131.301 184.689,140.870 189.662,165.272 196.340 C 173.202 198.511,175.016 199.137,175.132 199.742 C 175.371 200.984,174.882 201.130,166.194 202.408 C 139.819 206.291,129.183 210.689,127.754 218.303 C 127.401 220.186,126.627 220.324,124.036 218.968 C 105.763 209.403,105.325 187.106,123.204 176.700 C 126.632 174.705,127.212 174.746,128.160 177.051 M276.796 176.700 C 294.675 187.106,294.237 209.403,275.964 218.968 C 273.373 220.324,272.599 220.186,272.246 218.303 C 270.817 210.689,260.181 206.291,233.806 202.408 C 225.118 201.130,224.629 200.984,224.868 199.742 C 224.984 199.137,226.798 198.511,234.728 196.340 C 259.130 189.662,268.699 184.689,271.840 177.051 C 272.788 174.746,273.368 174.705,276.796 176.700 M190.000 211.003 C 190.000 213.848,180.659 249.486,178.956 253.141 C 174.859 261.930,169.558 266.852,161.800 269.069 C 158.185 270.102,112.458 270.401,111.455 269.398 C 110.655 268.598,109.563 270.735,121.132 250.462 C 136.788 223.026,137.138 222.761,167.820 215.013 C 189.262 209.599,190.000 209.465,190.000 211.003 M231.574 214.793 C 257.052 221.167,257.621 221.414,265.600 229.573 L 269.800 233.868 278.718 249.516 C 283.623 258.123,288.084 265.964,288.630 266.942 C 290.469 270.233,291.768 270.073,264.646 269.903 C 238.700 269.740,239.054 269.771,233.789 267.210 C 229.061 264.911,223.772 258.862,221.012 252.600 C 219.878 250.028,210.032 211.305,210.304 210.488 C 210.594 209.619,212.135 209.931,231.574 214.793 M203.660 234.723 C 210.334 259.122,215.310 268.698,222.949 271.840 C 225.254 272.788,225.295 273.368,223.300 276.796 C 212.894 294.675,190.597 294.237,181.032 275.964 C 179.676 273.373,179.814 272.599,181.697 272.246 C 189.306 270.818,193.709 260.177,197.585 233.850 C 198.944 224.618,198.920 224.704,200.138 224.877 C 200.906 224.987,201.290 226.061,203.660 234.723 " stroke="none" fill="#fcfcfc" fill-rule="evenodd"></path><path id="path2" d="M192.100 20.276 C 192.485 20.376,193.115 20.376,193.500 20.276 C 193.885 20.175,193.570 20.093,192.800 20.093 C 192.030 20.093,191.715 20.175,192.100 20.276 M206.500 20.276 C 206.885 20.376,207.515 20.376,207.900 20.276 C 208.285 20.175,207.970 20.093,207.200 20.093 C 206.430 20.093,206.115 20.175,206.500 20.276 M20.093 192.800 C 20.093 193.570,20.175 193.885,20.276 193.500 C 20.376 193.115,20.376 192.485,20.276 192.100 C 20.175 191.715,20.093 192.030,20.093 192.800 M379.693 192.800 C 379.693 193.570,379.775 193.885,379.876 193.500 C 379.976 193.115,379.976 192.485,379.876 192.100 C 379.775 191.715,379.693 192.030,379.693 192.800 M20.093 207.200 C 20.093 207.970,20.175 208.285,20.276 207.900 C 20.376 207.515,20.376 206.885,20.276 206.500 C 20.175 206.115,20.093 206.430,20.093 207.200 M379.693 207.200 C 379.693 207.970,379.775 208.285,379.876 207.900 C 379.976 207.515,379.976 206.885,379.876 206.500 C 379.775 206.115,379.693 206.430,379.693 207.200 M192.100 379.876 C 192.485 379.976,193.115 379.976,193.500 379.876 C 193.885 379.775,193.570 379.693,192.800 379.693 C 192.030 379.693,191.715 379.775,192.100 379.876 M206.500 379.876 C 206.885 379.976,207.515 379.976,207.900 379.876 C 208.285 379.775,207.970 379.693,207.200 379.693 C 206.430 379.693,206.115 379.775,206.500 379.876 " stroke="none" fill="#d47c7c" fill-rule="evenodd"></path><path id="path3" d="M196.900 20.297 C 198.605 20.372,201.395 20.372,203.100 20.297 C 204.805 20.222,203.410 20.161,200.000 20.161 C 196.590 20.161,195.195 20.222,196.900 20.297 M72.589 72.900 L 69.800 75.800 72.700 73.011 C 75.394 70.420,75.783 70.000,75.489 70.000 C 75.428 70.000,74.123 71.305,72.589 72.900 M327.000 72.800 C 328.528 74.340,329.869 75.600,329.979 75.600 C 330.089 75.600,328.928 74.340,327.400 72.800 C 325.872 71.260,324.531 70.000,324.421 70.000 C 324.311 70.000,325.472 71.260,327.000 72.800 M20.137 197.000 C 20.139 198.760,20.209 199.430,20.293 198.489 C 20.378 197.549,20.377 196.109,20.291 195.289 C 20.205 194.470,20.136 195.240,20.137 197.000 M379.761 200.000 C 379.761 203.410,379.822 204.805,379.897 203.100 C 379.972 201.395,379.972 198.605,379.897 196.900 C 379.822 195.195,379.761 196.590,379.761 200.000 M20.134 203.200 C 20.134 204.850,20.205 205.525,20.291 204.700 C 20.378 203.875,20.378 202.525,20.291 201.700 C 20.205 200.875,20.134 201.550,20.134 203.200 M123.128 269.900 C 129.359 269.962,139.439 269.962,145.528 269.900 C 151.618 269.838,146.520 269.787,134.200 269.787 C 121.880 269.787,116.898 269.838,123.128 269.900 M255.128 269.900 C 261.359 269.962,271.439 269.962,277.528 269.900 C 283.618 269.838,278.520 269.787,266.200 269.787 C 253.880 269.787,248.898 269.838,255.128 269.900 M72.600 327.200 C 74.128 328.740,75.469 330.000,75.579 330.000 C 75.689 330.000,74.528 328.740,73.000 327.200 C 71.472 325.660,70.131 324.400,70.021 324.400 C 69.911 324.400,71.072 325.660,72.600 327.200 M326.989 327.300 L 324.200 330.200 327.100 327.411 C 329.794 324.820,330.183 324.400,329.889 324.400 C 329.828 324.400,328.523 325.705,326.989 327.300 M195.511 379.893 C 196.451 379.978,197.891 379.977,198.711 379.891 C 199.530 379.805,198.760 379.736,197.000 379.737 C 195.240 379.739,194.570 379.809,195.511 379.893 M201.700 379.891 C 202.525 379.978,203.875 379.978,204.700 379.891 C 205.525 379.805,204.850 379.734,203.200 379.734 C 201.550 379.734,200.875 379.805,201.700 379.891 " stroke="none" fill="#dd9e9e" fill-rule="evenodd"></path><path id="path4" d="M171.200 135.725 C 171.200 135.794,171.785 136.379,172.500 137.025 L 173.800 138.200 172.625 136.900 C 171.530 135.688,171.200 135.416,171.200 135.725 " stroke="none" fill="#cc6c6c" fill-rule="evenodd"></path></g></svg>